<svg xmlns="http://www.w3.org/2000/svg" viewBox="0 0 569 238.3"><defs><style>.cls-1,.cls-3{fill:#fff;}.cls-2{fill:#3ada73;}.cls-3{stroke:#fff;stroke-miterlimit:10;stroke-width:2px;}</style></defs><title>DonationsTWA</title><g id="Layer_1" data-name="Layer 1"><path class="cls-1" d="M2.5,235.8V120.45A2.5,2.5,0,0,1,5,118H566.5V235.8Z"/><path class="cls-2" d="M564,120.45V233.3H5V120.45H564m5-5H5a5,5,0,0,0-5,5V238.3H569V115.45Z"/><path class="cls-2" d="M61.12,199.13V159.48h-15v-4.83H81.38v4.83H66.45v39.65Z"/><path class="cls-2" d="M92.06,199.13V152.75h5.21v16.08h.13c1.84-2.54,5.78-4.32,9.85-4.32,7.18,0,12.07,4.51,12.07,12.64v22h-5.21V178.55c0-6.16-2.61-9.28-7.82-9.28-5.53,0-9,3.56-9,8.7v21.16Z"/><path class="cls-2" d="M156.62,188.71l4.26,2.8a15.32,15.32,0,0,1-14.11,8.58,14.66,14.66,0,0,1-11.31-4.83c-3-3.24-4.45-7.56-4.45-13s1.46-9.66,4.32-12.9a14.45,14.45,0,0,1,11.18-4.89,14,14,0,0,1,11,4.77c2.86,3.18,4.26,7.5,4.26,13v1.53H136.35A13.47,13.47,0,0,0,139,192a9.22,9.22,0,0,0,7.63,3.37c3,0,5.4-.83,6.86-2.29a14.53,14.53,0,0,0,2.92-4Zm-.13-9a12.31,12.31,0,0,0-2.54-7.37c-1.59-2.1-4.07-3.11-7.44-3.11a8.85,8.85,0,0,0-7.43,3.37,11.83,11.83,0,0,0-2.6,7.12Z"/><path class="cls-2" d="M213.8,199.13l-5-44.48h5.4l3.49,36.72h.13l6.36-25.92h3.37l6.29,25.92h.13l3.5-36.72h5.4l-5,44.48h-6.16l-5.78-23.51h-.13L220,199.13Z"/><path class="cls-2" d="M277.34,188.71l4.26,2.8a15.32,15.32,0,0,1-14.11,8.58,14.66,14.66,0,0,1-11.31-4.83c-3-3.24-4.45-7.56-4.45-13s1.46-9.66,4.32-12.9a14.45,14.45,0,0,1,11.18-4.89,14,14,0,0,1,11,4.77c2.86,3.18,4.26,7.5,4.26,13v1.53H257.07a13.47,13.47,0,0,0,2.67,8.2,9.22,9.22,0,0,0,7.63,3.37c3,0,5.4-.83,6.86-2.29a14.53,14.53,0,0,0,2.92-4Zm-.13-9a12.31,12.31,0,0,0-2.54-7.37c-1.59-2.1-4.07-3.11-7.44-3.11a8.85,8.85,0,0,0-7.43,3.37,11.83,11.83,0,0,0-2.6,7.12Z"/><path class="cls-2" d="M295.64,199.13V152.75h5.21V168.7H301a11.59,11.59,0,0,1,9.34-4.19,13.26,13.26,0,0,1,10.55,4.89c2.79,3.24,4.19,7.56,4.19,12.9s-1.33,9.72-4.07,13a13.95,13.95,0,0,1-20.52.64h-.13v3.24Zm5.21-11.18a6.8,6.8,0,0,0,2.48,5.21,9,9,0,0,0,6.16,2.22c6.67,0,10.23-4.76,10.23-13.09s-3.56-13.09-10.23-13.09a8.46,8.46,0,0,0-8.64,8.32Z"/><path class="cls-2" d="M399.79,199.13l-3-8.71H378.56l-2.73,8.71H370.3L385,154.65h5.53l14.74,44.48Zm-4.51-13.28-7.44-24.14h-.13L380,185.85Z"/><path class="cls-2" d="M415.67,213.43v-48h5v3.24h.13a12.78,12.78,0,0,1,9.66-4.19A13.53,13.53,0,0,1,441,169.4c2.86,3.24,4.26,7.5,4.26,12.9s-1.4,9.72-4.13,13a13.27,13.27,0,0,1-10.67,4.83c-4.13,0-7.94-2.16-9.4-4.19h-.13v17.54Zm5.21-25.35a6.68,6.68,0,0,0,2.48,5.15,8.9,8.9,0,0,0,6.16,2.16c6.67,0,10.42-4.76,10.42-13.09s-3.81-13.09-10.42-13.09a8.15,8.15,0,0,0-6.29,2.54,8,8,0,0,0-2.35,5.66Z"/><path class="cls-2" d="M457,213.43v-48h5v3.24h.13a12.78,12.78,0,0,1,9.66-4.19,13.53,13.53,0,0,1,10.55,4.89c2.86,3.24,4.26,7.5,4.26,12.9s-1.4,9.72-4.13,13a13.27,13.27,0,0,1-10.67,4.83c-4.13,0-7.94-2.16-9.4-4.19h-.13v17.54Zm5.21-25.35a6.68,6.68,0,0,0,2.48,5.15,8.9,8.9,0,0,0,6.16,2.16c6.67,0,10.42-4.76,10.42-13.09s-3.81-13.09-10.42-13.09a8.15,8.15,0,0,0-6.29,2.54,8,8,0,0,0-2.35,5.66Z"/><rect class="cls-1" x="2.5" y="2.5" width="441" height="117.85"/><path class="cls-2" d="M441,5V117.85H5V5H441m5-5H0V122.85H446V0Z"/><path class="cls-2" d="M49.23,82.35V37.87h12.2c9.91,0,19.38,6.8,19.38,22.17,0,8.13-2.35,14.3-6.23,17.6a20.09,20.09,0,0,1-13.53,4.7Zm5.46-4.83h5.91c9.66,0,14.49-5.85,14.49-17.47,0-11.18-5.4-17.35-14.11-17.35H54.7Z"/><path class="cls-2" d="M94.16,78.6c-2.92-3.18-4.38-7.56-4.38-13.09s1.53-9.85,4.51-13a14.49,14.49,0,0,1,10.93-4.77A14,14,0,0,1,116,52.48c3,3.18,4.45,7.5,4.45,13s-1.46,9.91-4.32,13.09a14.14,14.14,0,0,1-10.87,4.7A14.54,14.54,0,0,1,94.16,78.6Zm20.9-13.09c0-8.32-4.07-13.09-9.85-13.09s-10.1,4.7-10.1,13.09S99.3,78.6,105.21,78.6C110.87,78.6,115.06,73.7,115.06,65.51Z"/><path class="cls-2" d="M133.11,82.35V48.67h5v3.24h.13c1.84-2.48,5.65-4.19,9.47-4.19,7.31,0,12.07,4.83,12.07,12.52V82.35h-5.21V61.89c0-6.29-2.54-9.4-7.62-9.4-5.27,0-8.58,3.11-8.58,8.39V82.35Z"/><path class="cls-2" d="M196.27,82.35V78.66h-.13c-1.27,2.22-5,4.64-10.29,4.64-7.44,0-11.5-4.07-11.5-9.59s3.24-8.45,11.44-10.55c7.05-1.78,9.66-2.86,9.66-5.91,0-2.79-2.73-4.89-7.05-4.89q-6.77,0-8.2,6.67l-4.83-1.4c1-5.85,5.78-9.91,12.83-9.91a14.25,14.25,0,0,1,9.21,2.86A9.5,9.5,0,0,1,201,58.33v24Zm-16.71-9c0,3.5,2.22,5.27,6.67,5.27,6.1,0,9.53-3.11,9.53-7.12V63.16h-.13c-.57,1.21-3.49,2.54-8.64,4C181.21,68.75,179.56,70.4,179.56,73.39Z"/><path class="cls-2" d="M225.12,53.31H214.38V48.67h10.8V40.41h5.08v8.26H242.4v4.64H230.32V71.93c0,4,.83,5.4,4.13,5.4h5.72v5h-6c-6.35,0-9.08-3.24-9.08-9.79Z"/><path class="cls-2" d="M257.9,53.12V48.67h16.52V77.9h11.12v4.45h-28V77.9h11.69V53.12Zm11-11.25V36h6v5.91Z"/><path class="cls-2" d="M300.66,78.6c-2.92-3.18-4.38-7.56-4.38-13.09s1.53-9.85,4.51-13a14.49,14.49,0,0,1,10.93-4.77,14,14,0,0,1,10.74,4.77c3,3.18,4.45,7.5,4.45,13s-1.46,9.91-4.32,13.09a14.14,14.14,0,0,1-10.87,4.7A14.54,14.54,0,0,1,300.66,78.6Zm20.9-13.09c0-8.32-4.07-13.09-9.85-13.09s-10.1,4.7-10.1,13.09,4.19,13.09,10.1,13.09C317.38,78.6,321.57,73.7,321.57,65.51Z"/><path class="cls-2" d="M339.62,82.35V48.67h5v3.24h.13c1.84-2.48,5.66-4.19,9.47-4.19,7.31,0,12.07,4.83,12.07,12.52V82.35H361V61.89c0-6.29-2.54-9.4-7.62-9.4-5.27,0-8.58,3.11-8.58,8.39V82.35Z"/><path class="cls-2" d="M384.92,70c.76,5.91,4.32,8.83,10.74,8.83,5.91,0,8.83-1.78,8.83-5.34a4.32,4.32,0,0,0-1.84-3.81c-1.21-.83-4.19-1.84-8.9-3-5.15-1.33-8.51-2.67-10.23-4.13a7,7,0,0,1-2.35-5.78,8.15,8.15,0,0,1,3.43-6.23c2.22-1.84,5.34-2.73,9.21-2.73,7.88,0,12.52,3.81,14.11,9.4l-4.64,1.53c-1.46-4.32-4.64-6.48-9.4-6.48s-7.62,2.16-7.62,4.38a4,4,0,0,0,.44,2.22c.57,1,3.3,2.22,10.17,4,5.66,1.46,9,2.73,10.55,4.7s1.84,3.11,1.91,6c.25,5.53-4.13,9.85-13.6,9.85-9.85,0-14.93-5.08-15.76-12.39Z"/><rect class="cls-2" x="444.15" width="124.85" height="122.85"/><path class="cls-3" d="M541.05,61.42,516.82,74a29.89,29.89,0,0,1-27,.3l-.89-.44a20.16,20.16,0,0,0-16.1-.75l-3.28,1.25a1.25,1.25,0,0,0,.89,2.34l3.28-1.25a17.65,17.65,0,0,1,14.1.65l.89.44A32.41,32.41,0,0,0,518,76.25l24.23-12.6a7.78,7.78,0,0,0-6.33-14.17l-16.2,6.11a7.7,7.7,0,0,0-6.43-7.43l-4.13-.69a55.71,55.71,0,0,1-10.46-2.82,26.18,26.18,0,0,0-22.17,1.73l-7.07,4a1.25,1.25,0,1,0,1.24,2.18l7.07-4a23.66,23.66,0,0,1,20-1.57,58.13,58.13,0,0,0,10.93,2.95l4.13.69a5.2,5.2,0,0,1-.77,10.33l-17.23.29a1.25,1.25,0,1,0,0,2.5h0l17.23-.29a7.7,7.7,0,0,0,7.08-5l17.57-6.63a5.27,5.27,0,0,1,4.29,9.61Z"/></g></svg>